<!-- Generated by IcoMoon.io -->
<svg version="1.1" xmlns="http://www.w3.org/2000/svg" width="16" height="16" viewBox="0 0 16 16">
<title>add</title>
<path fill="#c5c5c5" d="M14.286 7.143v1.714c0 0.473-0.384 0.857-0.857 0.857h-3.714v3.714c0 0.473-0.384 0.857-0.857 0.857h-1.714c-0.473 0-0.857-0.384-0.857-0.857v-3.714h-3.714c-0.473 0-0.857-0.384-0.857-0.857v-1.714c0-0.473 0.384-0.857 0.857-0.857h3.714v-3.714c0-0.473 0.384-0.857 0.857-0.857h1.714c0.473 0 0.857 0.384 0.857 0.857v3.714h3.714c0.473 0 0.857 0.384 0.857 0.857z"></path>
</svg>
