<!-- Generated by IcoMoon.io -->
<svg version="1.1" xmlns="http://www.w3.org/2000/svg" width="16" height="16" viewBox="0 0 16 16">
<title>filter</title>
<path fill="#c5c5c5" d="M14.241 2.063c0.089 0.214 0.045 0.464-0.125 0.625l-4.402 4.402v6.625c0 0.232-0.143 0.438-0.348 0.527-0.071 0.027-0.152 0.045-0.223 0.045-0.152 0-0.295-0.054-0.402-0.17l-2.286-2.286c-0.107-0.107-0.17-0.25-0.17-0.402v-4.339l-4.402-4.402c-0.17-0.161-0.214-0.411-0.125-0.625 0.089-0.205 0.295-0.348 0.527-0.348h11.429c0.232 0 0.438 0.143 0.527 0.348z"></path>
</svg>
