<!-- Generated by IcoMoon.io -->
<svg version="1.1" xmlns="http://www.w3.org/2000/svg" width="16" height="16" viewBox="0 0 16 16">
<title>tag</title>
<path fill="#c5c5c5" d="M5.237 4.094c0-0.634-0.509-1.143-1.143-1.143s-1.143 0.509-1.143 1.143 0.509 1.143 1.143 1.143 1.143-0.509 1.143-1.143zM14.763 9.237c0 0.304-0.125 0.598-0.33 0.804l-4.384 4.393c-0.214 0.205-0.509 0.33-0.813 0.33s-0.598-0.125-0.804-0.33l-6.384-6.393c-0.455-0.446-0.813-1.313-0.813-1.946v-3.714c0-0.625 0.518-1.143 1.143-1.143h3.714c0.634 0 1.5 0.357 1.955 0.813l6.384 6.375c0.205 0.214 0.33 0.509 0.33 0.813z"></path>
</svg>
