<!-- Generated by IcoMoon.io -->
<svg version="1.1" xmlns="http://www.w3.org/2000/svg" width="16" height="16" viewBox="0 0 16 16">
<title>urgent</title>
<path fill="#c5c5c5" d="M8 1.143c3.786 0 6.857 3.071 6.857 6.857s-3.071 6.857-6.857 6.857-6.857-3.071-6.857-6.857 3.071-6.857 6.857-6.857zM9.143 12.277v-1.696c0-0.161-0.125-0.295-0.277-0.295h-1.714c-0.161 0-0.295 0.134-0.295 0.295v1.696c0 0.161 0.134 0.295 0.295 0.295h1.714c0.152 0 0.277-0.134 0.277-0.295zM9.125 9.205l0.161-5.545c0-0.063-0.027-0.125-0.089-0.161-0.054-0.045-0.134-0.071-0.214-0.071h-1.964c-0.080 0-0.161 0.027-0.214 0.071-0.063 0.036-0.089 0.098-0.089 0.161l0.152 5.545c0 0.125 0.134 0.223 0.304 0.223h1.652c0.161 0 0.295-0.098 0.304-0.223z"></path>
</svg>
