<?xml version="1.0" encoding="utf-8"?>
<!-- Generator: Adobe Illustrator 23.0.4, SVG Export Plug-In . SVG Version: 6.00 Build 0)  -->
<svg version="1.1" id="Layer_1" xmlns="http://www.w3.org/2000/svg" xmlns:xlink="http://www.w3.org/1999/xlink" x="0px" y="0px"
	 viewBox="0 0 512 512" style="enable-background:new 0 0 512 512;" xml:space="preserve">
<path d="M397.5,21.1c-2.4,0-4.5-0.3-6.6-0.6c-2.1-0.3-4.4-0.6-7-0.6H105.4C58.3,20,20,58.3,20,105.4v293.3
	c0,47.1,38.3,85.4,85.4,85.4h293.3c47.1,0,85.4-38.3,85.4-85.4V177.5c0-1-0.6-1.4-1.1-1.6c-0.5-0.2-1.2-0.3-1.9,0.4l-21,23
	c-2.8,3-4.3,7-4.3,11.1v188.2c0,31.5-25.6,57.1-57.1,57.1H105.4c-31.5,0-57.1-25.6-57.1-57.1V105.4c0-31.5,25.6-57.1,57.1-57.1
	h264.5c4.7,0,9.2-2,12.3-5.5L398.8,24c0.6-0.7,0.5-1.4,0.3-1.8C398.9,21.7,398.4,21.1,397.5,21.1z"/>
<path d="M443.8,68.2L237,298.1c-2.5,2.7-6.7,3-9.4,0.5L134.5,216c-2.8-2.5-7-2.2-9.5,0.6l-7.5,8.6c-2.4,2.8-2.2,7,0.6,9.4
	l107.1,95.2l4.3,3.8c2.8,2.4,7,2.2,9.4-0.6l3.8-4.3l219.6-244c2.5-2.8,2.2-7.1-0.6-9.5l-8.6-7.5C450.4,65.2,446.2,65.5,443.8,68.2z"
	/>
</svg>
