<!-- Generated by IcoMoon.io -->
<svg version="1.1" xmlns="http://www.w3.org/2000/svg" width="16" height="16" viewBox="0 0 16 16">
<title>comments</title>
<path fill="#424242" d="M12.571 6.285c0 2.527-2.813 4.571-6.286 4.571-0.545 0-1.071-0.054-1.571-0.143-0.741 0.527-1.58 0.911-2.482 1.143-0.241 0.063-0.5 0.107-0.768 0.143h-0.027c-0.134 0-0.259-0.107-0.286-0.259v0c-0.036-0.17 0.080-0.277 0.179-0.393 0.348-0.393 0.741-0.741 1.045-1.482-1.446-0.839-2.375-2.134-2.375-3.58 0-2.527 2.813-4.571 6.286-4.571s6.286 2.045 6.286 4.571zM16 8.571c0 1.455-0.929 2.741-2.375 3.58 0.304 0.741 0.696 1.089 1.045 1.482 0.098 0.116 0.214 0.223 0.179 0.393v0c-0.036 0.161-0.17 0.277-0.313 0.259-0.268-0.036-0.527-0.080-0.768-0.143-0.902-0.232-1.741-0.616-2.482-1.143-0.5 0.089-1.027 0.143-1.571 0.143-1.616 0-3.098-0.446-4.214-1.179 0.259 0.018 0.527 0.036 0.786 0.036 1.92 0 3.732-0.554 5.116-1.554 1.491-1.089 2.313-2.563 2.313-4.161 0-0.464-0.071-0.92-0.205-1.357 1.509 0.83 2.491 2.152 2.491 3.643z"></path>
</svg>
