<!-- Generated by IcoMoon.io -->
<svg version="1.1" xmlns="http://www.w3.org/2000/svg" width="16" height="16" viewBox="0 0 16 16">
<title>comment</title>
<path fill="#424242" d="M16 6.856c0 3.161-3.58 5.714-8 5.714-0.438 0-0.875-0.027-1.295-0.071-1.17 1.036-2.563 1.768-4.107 2.161-0.321 0.089-0.67 0.152-1.018 0.196-0.196 0.018-0.384-0.125-0.429-0.339v-0.009c-0.045-0.223 0.107-0.357 0.241-0.518 0.563-0.634 1.205-1.17 1.625-2.661-1.839-1.045-3.018-2.661-3.018-4.473 0-3.152 3.58-5.714 8-5.714s8 2.554 8 5.714z"></path>
</svg>
