<!-- Generated by IcoMoon.io -->
<svg version="1.1" xmlns="http://www.w3.org/2000/svg" width="16" height="16" viewBox="0 0 16 16">
<title>edit</title>
<path fill="#424242" d="M4.478 13.621l0.813-0.813-2.098-2.098-0.813 0.813v0.955h1.143v1.143h0.955zM9.147 5.335c0-0.116-0.080-0.196-0.196-0.196-0.054 0-0.107 0.018-0.152 0.063l-4.839 4.839c-0.045 0.045-0.063 0.098-0.063 0.152 0 0.116 0.080 0.196 0.196 0.196 0.054 0 0.107-0.018 0.152-0.063l4.839-4.839c0.045-0.045 0.063-0.098 0.063-0.152zM8.665 3.621l3.714 3.714-7.429 7.429h-3.714v-3.714zM14.763 4.478c0 0.304-0.125 0.598-0.33 0.804l-1.482 1.482-3.714-3.714 1.482-1.473c0.205-0.214 0.5-0.339 0.804-0.339s0.598 0.125 0.813 0.339l2.098 2.089c0.205 0.214 0.33 0.509 0.33 0.813z"></path>
</svg>
