<!-- Generated by IcoMoon.io -->
<svg version="1.1" xmlns="http://www.w3.org/2000/svg" width="16" height="16" viewBox="0 0 16 16">
<title>favoriteOn</title>
<path fill="#424242" d="M15.429 6.406c0 0.161-0.116 0.313-0.232 0.429l-3.241 3.161 0.768 4.464c0.009 0.063 0.009 0.116 0.009 0.179 0 0.232-0.107 0.446-0.366 0.446-0.125 0-0.25-0.045-0.357-0.107l-4.009-2.107-4.009 2.107c-0.116 0.063-0.232 0.107-0.357 0.107-0.259 0-0.375-0.214-0.375-0.446 0-0.063 0.009-0.116 0.018-0.179l0.768-4.464-3.25-3.161c-0.107-0.116-0.223-0.268-0.223-0.429 0-0.268 0.277-0.375 0.5-0.411l4.482-0.652 2.009-4.063c0.080-0.17 0.232-0.366 0.438-0.366s0.357 0.196 0.438 0.366l2.009 4.063 4.482 0.652c0.214 0.036 0.5 0.143 0.5 0.411z"></path>
</svg>
