<!-- Generated by IcoMoon.io -->
<svg version="1.1" xmlns="http://www.w3.org/2000/svg" width="16" height="16" viewBox="0 0 16 16">
<title>sync</title>
<path fill="#424242" d="M14.634 9.429c0 0.018 0 0.045-0.009 0.063-0.759 3.161-3.366 5.366-6.661 5.366-1.741 0-3.429-0.688-4.696-1.893l-1.152 1.152c-0.107 0.107-0.25 0.17-0.402 0.17-0.313 0-0.571-0.259-0.571-0.571v-4c0-0.313 0.259-0.571 0.571-0.571h4c0.313 0 0.571 0.259 0.571 0.571 0 0.152-0.063 0.295-0.17 0.402l-1.223 1.223c0.839 0.786 1.955 1.232 3.107 1.232 1.589 0 3.063-0.821 3.893-2.179 0.214-0.348 0.321-0.688 0.473-1.045 0.045-0.125 0.134-0.205 0.268-0.205h1.714c0.161 0 0.286 0.134 0.286 0.286zM14.857 2.286v4c0 0.313-0.259 0.571-0.571 0.571h-4c-0.313 0-0.571-0.259-0.571-0.571 0-0.152 0.063-0.295 0.17-0.402l1.232-1.232c-0.848-0.786-1.964-1.223-3.116-1.223-1.589 0-3.063 0.821-3.893 2.179-0.214 0.348-0.321 0.688-0.473 1.045-0.045 0.125-0.134 0.205-0.268 0.205h-1.777c-0.161 0-0.286-0.134-0.286-0.286v-0.063c0.768-3.17 3.402-5.366 6.696-5.366 1.75 0 3.455 0.696 4.723 1.893l1.161-1.152c0.107-0.107 0.25-0.17 0.402-0.17 0.313 0 0.571 0.259 0.571 0.571z"></path>
</svg>
