<!-- Generated by IcoMoon.io -->
<svg version="1.1" xmlns="http://www.w3.org/2000/svg" width="16" height="16" viewBox="0 0 16 16">
<title>tags</title>
<path fill="#424242" d="M4.106 4.603c0-0.551-0.443-0.994-0.994-0.994s-0.994 0.443-0.994 0.994 0.443 0.994 0.994 0.994 0.994-0.443 0.994-0.994zM12.391 9.076c0 0.264-0.109 0.52-0.287 0.699l-3.813 3.821c-0.186 0.179-0.443 0.287-0.707 0.287s-0.52-0.109-0.699-0.287l-5.552-5.56c-0.396-0.388-0.707-1.141-0.707-1.693v-3.23c0-0.544 0.45-0.994 0.994-0.994h3.23c0.551 0 1.305 0.311 1.701 0.707l5.552 5.545c0.179 0.186 0.287 0.443 0.287 0.707zM15.373 9.076c0 0.264-0.109 0.52-0.287 0.699l-3.813 3.821c-0.186 0.179-0.443 0.287-0.707 0.287-0.404 0-0.606-0.186-0.87-0.458l3.65-3.65c0.179-0.179 0.287-0.435 0.287-0.699s-0.109-0.52-0.287-0.707l-5.552-5.545c-0.396-0.396-1.149-0.707-1.701-0.707h1.739c0.551 0 1.305 0.311 1.701 0.707l5.552 5.545c0.179 0.186 0.287 0.443 0.287 0.707z"></path>
</svg>
