<!-- Generated by IcoMoon.io -->
<svg version="1.1" xmlns="http://www.w3.org/2000/svg" width="16" height="16" viewBox="0 0 16 16">
<title>time</title>
<path fill="#424242" d="M9.143 4.857v4c0 0.161-0.125 0.286-0.286 0.286h-2.857c-0.161 0-0.286-0.125-0.286-0.286v-0.571c0-0.161 0.125-0.286 0.286-0.286h2v-3.143c0-0.161 0.125-0.286 0.286-0.286h0.571c0.161 0 0.286 0.125 0.286 0.286zM12.857 8c0-2.679-2.179-4.857-4.857-4.857s-4.857 2.179-4.857 4.857 2.179 4.857 4.857 4.857 4.857-2.179 4.857-4.857zM14.857 8c0 3.786-3.071 6.857-6.857 6.857s-6.857-3.071-6.857-6.857 3.071-6.857 6.857-6.857 6.857 3.071 6.857 6.857z"></path>
</svg>
